<mxfile host="drawio-plugin" modified="2022-10-23T17:37:24.908Z" agent="5.0 (Macintosh; Intel Mac OS X 10_15_7) AppleWebKit/537.36 (KHTML, like Gecko) Chrome/98.0.4758.102 Safari/537.36" etag="DcX5YyMHmXnRMX_OkZ0o" version="15.5.4" type="embed"><diagram id="JesT1ud212xel_Hu2zkj" name="Page-1"><mxGraphModel dx="905" dy="813" grid="1" gridSize="10" guides="1" tooltips="1" connect="1" arrows="1" fold="1" page="1" pageScale="1" pageWidth="850" pageHeight="1100" math="0" shadow="0"><root><mxCell id="0"/><mxCell id="1" parent="0"/><mxCell id="90" style="edgeStyle=orthogonalEdgeStyle;rounded=0;orthogonalLoop=1;jettySize=auto;html=1;entryX=0.5;entryY=0;entryDx=0;entryDy=0;" parent="1" source="89" target="80" edge="1"><mxGeometry relative="1" as="geometry"/></mxCell><mxCell id="89" value="" style="rounded=1;whiteSpace=wrap;html=1;" parent="1" vertex="1"><mxGeometry x="90" y="670" width="720" height="340" as="geometry"/></mxCell><mxCell id="10" style="edgeStyle=orthogonalEdgeStyle;rounded=0;orthogonalLoop=1;jettySize=auto;html=1;" parent="1" source="2" target="9" edge="1"><mxGeometry relative="1" as="geometry"/></mxCell><mxCell id="2" value="excel input" style="sketch=0;pointerEvents=1;shadow=0;dashed=0;html=1;strokeColor=none;fillColor=#505050;labelPosition=center;verticalLabelPosition=bottom;verticalAlign=top;outlineConnect=0;align=center;shape=mxgraph.office.services.excel_services;" parent="1" vertex="1"><mxGeometry x="40" y="40" width="60" height="49" as="geometry"/></mxCell><mxCell id="7" value="raw JSON output" style="dashed=0;outlineConnect=0;html=1;align=center;labelPosition=center;verticalLabelPosition=bottom;verticalAlign=top;shape=mxgraph.weblogos.json_2" parent="1" vertex="1"><mxGeometry x="370.20000000000005" y="1715.5" width="80.4" height="25.200000000000003" as="geometry"/></mxCell><mxCell id="8" value="excel output" style="sketch=0;pointerEvents=1;shadow=0;dashed=0;html=1;strokeColor=none;fillColor=#505050;labelPosition=center;verticalLabelPosition=bottom;verticalAlign=top;outlineConnect=0;align=center;shape=mxgraph.office.services.excel_services;" parent="1" vertex="1"><mxGeometry x="380.4" y="1605.5" width="60" height="49" as="geometry"/></mxCell><mxCell id="37" style="edgeStyle=orthogonalEdgeStyle;rounded=0;orthogonalLoop=1;jettySize=auto;html=1;entryX=0.25;entryY=0;entryDx=0;entryDy=0;" parent="1" source="9" target="16" edge="1"><mxGeometry relative="1" as="geometry"/></mxCell><mxCell id="9" value="READER&lt;br&gt;&lt;br style=&quot;font-size: 11px&quot;&gt;reads all rows&lt;br&gt;from the input file" style="rounded=1;whiteSpace=wrap;html=1;fillColor=#6d8764;strokeColor=#3A5431;fontColor=#ffffff;fontSize=11;" parent="1" vertex="1"><mxGeometry x="160" y="34.5" width="140" height="60" as="geometry"/></mxCell><mxCell id="38" style="edgeStyle=orthogonalEdgeStyle;rounded=0;orthogonalLoop=1;jettySize=auto;html=1;entryX=0;entryY=0.5;entryDx=0;entryDy=0;" parent="1" source="16" target="18" edge="1"><mxGeometry relative="1" as="geometry"/></mxCell><mxCell id="16" value="RAW ROWS" style="label;whiteSpace=wrap;html=1;image=img/clipart/Gear_128x128.png;fontSize=11;" parent="1" vertex="1"><mxGeometry x="250" y="140" width="140" height="60" as="geometry"/></mxCell><mxCell id="35" style="edgeStyle=orthogonalEdgeStyle;rounded=0;orthogonalLoop=1;jettySize=auto;html=1;entryX=0.25;entryY=0;entryDx=0;entryDy=0;" parent="1" source="18" target="20" edge="1"><mxGeometry relative="1" as="geometry"/></mxCell><mxCell id="18" value="RAW FILTER&lt;br&gt;&lt;br style=&quot;font-size: 11px&quot;&gt;pre-filters out unwanted rows based on raw data" style="rounded=1;whiteSpace=wrap;html=1;fillColor=#6d8764;strokeColor=#3A5431;fontSize=11;fontColor=#ffffff;" parent="1" vertex="1"><mxGeometry x="390" y="34.5" width="140" height="60" as="geometry"/></mxCell><mxCell id="36" style="edgeStyle=orthogonalEdgeStyle;rounded=0;orthogonalLoop=1;jettySize=auto;html=1;entryX=0;entryY=0.5;entryDx=0;entryDy=0;" parent="1" source="20" target="28" edge="1"><mxGeometry relative="1" as="geometry"/></mxCell><mxCell id="20" value="RAW ROWS" style="label;whiteSpace=wrap;html=1;image=img/clipart/Gear_128x128.png;fontSize=11;" parent="1" vertex="1"><mxGeometry x="530" y="140" width="140" height="60" as="geometry"/></mxCell><mxCell id="23" style="edgeStyle=orthogonalEdgeStyle;rounded=0;orthogonalLoop=1;jettySize=auto;html=1;fontSize=11;" parent="1" source="22" target="8" edge="1"><mxGeometry relative="1" as="geometry"/></mxCell><mxCell id="24" style="edgeStyle=orthogonalEdgeStyle;rounded=0;orthogonalLoop=1;jettySize=auto;html=1;fontSize=11;" parent="1" source="22" target="7" edge="1"><mxGeometry relative="1" as="geometry"><Array as="points"><mxPoint x="340" y="1630.5"/><mxPoint x="340" y="1728.5"/></Array></mxGeometry></mxCell><mxCell id="22" value="WRITER" style="rounded=1;whiteSpace=wrap;html=1;fontSize=11;" parent="1" vertex="1"><mxGeometry x="160" y="1600" width="140" height="60" as="geometry"/></mxCell><mxCell id="47" style="edgeStyle=orthogonalEdgeStyle;rounded=0;orthogonalLoop=1;jettySize=auto;html=1;entryX=0.5;entryY=0;entryDx=0;entryDy=0;" parent="1" source="25" target="46" edge="1"><mxGeometry relative="1" as="geometry"/></mxCell><mxCell id="25" value="PARSER" style="rounded=1;whiteSpace=wrap;html=1;fillColor=#a0522d;strokeColor=#6D1F00;fontColor=#ffffff;fontSize=11;" parent="1" vertex="1"><mxGeometry x="160" y="300" width="140" height="60" as="geometry"/></mxCell><mxCell id="40" style="edgeStyle=orthogonalEdgeStyle;rounded=0;orthogonalLoop=1;jettySize=auto;html=1;entryX=0.25;entryY=0;entryDx=0;entryDy=0;" parent="1" source="28" target="30" edge="1"><mxGeometry relative="1" as="geometry"/></mxCell><mxCell id="28" value="VALIDATOR&lt;br&gt;&lt;br&gt;checks that rows have all the required data in the expected format" style="rounded=1;whiteSpace=wrap;html=1;fillColor=#6d8764;strokeColor=#3A5431;fontSize=11;fontColor=#ffffff;" parent="1" vertex="1"><mxGeometry x="650" y="24.5" width="140" height="80" as="geometry"/></mxCell><mxCell id="41" style="edgeStyle=orthogonalEdgeStyle;rounded=0;orthogonalLoop=1;jettySize=auto;html=1;exitX=0.5;exitY=1;exitDx=0;exitDy=0;" parent="1" source="44" target="25" edge="1"><mxGeometry relative="1" as="geometry"><Array as="points"><mxPoint x="1110" y="240"/><mxPoint x="230" y="240"/></Array></mxGeometry></mxCell><mxCell id="43" style="edgeStyle=orthogonalEdgeStyle;rounded=0;orthogonalLoop=1;jettySize=auto;html=1;entryX=0;entryY=0.5;entryDx=0;entryDy=0;" parent="1" source="30" target="42" edge="1"><mxGeometry relative="1" as="geometry"/></mxCell><mxCell id="30" value="RAW ROWS" style="label;whiteSpace=wrap;html=1;image=img/clipart/Gear_128x128.png;fontSize=11;" parent="1" vertex="1"><mxGeometry x="800" y="140" width="140" height="60" as="geometry"/></mxCell><mxCell id="45" style="edgeStyle=orthogonalEdgeStyle;rounded=0;orthogonalLoop=1;jettySize=auto;html=1;entryX=0.5;entryY=0;entryDx=0;entryDy=0;" parent="1" source="42" target="44" edge="1"><mxGeometry relative="1" as="geometry"><Array as="points"><mxPoint x="1145" y="65"/></Array></mxGeometry></mxCell><mxCell id="42" value="CONVERTER&lt;br&gt;&lt;br&gt;parse dates and times from raw strings" style="rounded=1;whiteSpace=wrap;html=1;fillColor=#6d8764;strokeColor=#3A5431;fontSize=11;fontColor=#ffffff;" parent="1" vertex="1"><mxGeometry x="910" y="31.75" width="140" height="65.5" as="geometry"/></mxCell><mxCell id="44" value="RAW ROWS&lt;br&gt;with parsed date and times" style="label;whiteSpace=wrap;html=1;image=img/clipart/Gear_128x128.png;fontSize=11;" parent="1" vertex="1"><mxGeometry x="1040" y="140" width="210" height="60" as="geometry"/></mxCell><mxCell id="50" style="edgeStyle=orthogonalEdgeStyle;rounded=0;orthogonalLoop=1;jettySize=auto;html=1;entryX=0;entryY=0.5;entryDx=0;entryDy=0;" parent="1" source="46" target="48" edge="1"><mxGeometry relative="1" as="geometry"/></mxCell><mxCell id="51" style="edgeStyle=orthogonalEdgeStyle;rounded=0;orthogonalLoop=1;jettySize=auto;html=1;entryX=0;entryY=0.5;entryDx=0;entryDy=0;" parent="1" source="46" target="49" edge="1"><mxGeometry relative="1" as="geometry"/></mxCell><mxCell id="46" value="ROOM HYDRATOR&lt;br&gt;&lt;br&gt;from input room description, &lt;br&gt;recognize (or register) room" style="rounded=1;whiteSpace=wrap;html=1;fillColor=#a0522d;strokeColor=#6D1F00;fontColor=#ffffff;fontSize=11;" parent="1" vertex="1"><mxGeometry x="135" y="420" width="190" height="60" as="geometry"/></mxCell><mxCell id="48" value="ROOMS&lt;br&gt;list of all rooms" style="label;whiteSpace=wrap;html=1;image=img/clipart/Gear_128x128.png;fontSize=11;" parent="1" vertex="1"><mxGeometry x="325" y="580" width="140" height="60" as="geometry"/></mxCell><mxCell id="53" style="edgeStyle=orthogonalEdgeStyle;rounded=0;orthogonalLoop=1;jettySize=auto;html=1;entryX=0;entryY=0.5;entryDx=0;entryDy=0;" parent="1" source="49" target="52" edge="1"><mxGeometry relative="1" as="geometry"/></mxCell><mxCell id="49" value="ROWS&lt;br&gt;with room code" style="label;whiteSpace=wrap;html=1;image=img/clipart/Gear_128x128.png;fontSize=11;" parent="1" vertex="1"><mxGeometry x="325" y="510" width="140" height="60" as="geometry"/></mxCell><mxCell id="56" style="edgeStyle=orthogonalEdgeStyle;rounded=0;orthogonalLoop=1;jettySize=auto;html=1;entryX=0;entryY=0.5;entryDx=0;entryDy=0;" parent="1" source="52" target="54" edge="1"><mxGeometry relative="1" as="geometry"><Array as="points"><mxPoint x="620" y="610"/></Array></mxGeometry></mxCell><mxCell id="57" style="edgeStyle=orthogonalEdgeStyle;rounded=0;orthogonalLoop=1;jettySize=auto;html=1;entryX=0;entryY=0.5;entryDx=0;entryDy=0;" parent="1" source="52" target="55" edge="1"><mxGeometry relative="1" as="geometry"><Array as="points"><mxPoint x="620" y="540"/></Array></mxGeometry></mxCell><mxCell id="52" value="OPERATORS HYDRATOR&lt;br&gt;&lt;br&gt;from input educator description, &lt;br&gt;recognize (or register) operator" style="rounded=1;whiteSpace=wrap;html=1;fillColor=#a0522d;strokeColor=#6D1F00;fontColor=#ffffff;fontSize=11;" parent="1" vertex="1"><mxGeometry x="530" y="420" width="190" height="60" as="geometry"/></mxCell><mxCell id="54" value="OPERATORS&lt;br&gt;list of all operators" style="label;whiteSpace=wrap;html=1;image=img/clipart/Gear_128x128.png;fontSize=11;" parent="1" vertex="1"><mxGeometry x="780" y="580" width="190" height="60" as="geometry"/></mxCell><mxCell id="59" style="edgeStyle=orthogonalEdgeStyle;rounded=0;orthogonalLoop=1;jettySize=auto;html=1;entryX=0;entryY=0.5;entryDx=0;entryDy=0;" parent="1" source="55" target="58" edge="1"><mxGeometry relative="1" as="geometry"/></mxCell><mxCell id="55" value="ROWS&lt;br&gt;with room and operator code" style="label;whiteSpace=wrap;html=1;image=img/clipart/Gear_128x128.png;fontSize=11;" parent="1" vertex="1"><mxGeometry x="780" y="510" width="190" height="60" as="geometry"/></mxCell><mxCell id="62" style="edgeStyle=orthogonalEdgeStyle;rounded=0;orthogonalLoop=1;jettySize=auto;html=1;entryX=0;entryY=0.5;entryDx=0;entryDy=0;" parent="1" source="58" target="61" edge="1"><mxGeometry relative="1" as="geometry"><Array as="points"><mxPoint x="1120" y="610"/></Array></mxGeometry></mxCell><mxCell id="63" style="edgeStyle=orthogonalEdgeStyle;rounded=0;orthogonalLoop=1;jettySize=auto;html=1;entryX=0;entryY=0.5;entryDx=0;entryDy=0;" parent="1" source="58" target="60" edge="1"><mxGeometry relative="1" as="geometry"><Array as="points"><mxPoint x="1120" y="540"/></Array></mxGeometry></mxCell><mxCell id="71" style="edgeStyle=orthogonalEdgeStyle;rounded=0;orthogonalLoop=1;jettySize=auto;html=1;entryX=0;entryY=0.5;entryDx=0;entryDy=0;" parent="1" source="58" target="69" edge="1"><mxGeometry relative="1" as="geometry"><Array as="points"><mxPoint x="1120" y="680"/></Array></mxGeometry></mxCell><mxCell id="72" style="edgeStyle=orthogonalEdgeStyle;rounded=0;orthogonalLoop=1;jettySize=auto;html=1;entryX=0;entryY=0.5;entryDx=0;entryDy=0;" parent="1" source="58" target="70" edge="1"><mxGeometry relative="1" as="geometry"><Array as="points"><mxPoint x="1120" y="750"/></Array></mxGeometry></mxCell><mxCell id="58" value="GROUPS HYDRATOR&lt;br&gt;&lt;br&gt;from input code and group info,&lt;br&gt;recognize or register the group" style="rounded=1;whiteSpace=wrap;html=1;fillColor=#a0522d;strokeColor=#6D1F00;fontColor=#ffffff;fontSize=11;" parent="1" vertex="1"><mxGeometry x="1030" y="420" width="190" height="60" as="geometry"/></mxCell><mxCell id="65" style="edgeStyle=orthogonalEdgeStyle;rounded=0;orthogonalLoop=1;jettySize=auto;html=1;entryX=0;entryY=0.5;entryDx=0;entryDy=0;" parent="1" source="60" target="64" edge="1"><mxGeometry relative="1" as="geometry"/></mxCell><mxCell id="60" value="ROWS&lt;br&gt;with room, operator, group code" style="label;whiteSpace=wrap;html=1;image=img/clipart/Gear_128x128.png;fontSize=11;" parent="1" vertex="1"><mxGeometry x="1260" y="510" width="190" height="60" as="geometry"/></mxCell><mxCell id="61" value="GROUPS&lt;br&gt;list of all groups" style="label;whiteSpace=wrap;html=1;image=img/clipart/Gear_128x128.png;fontSize=11;" parent="1" vertex="1"><mxGeometry x="1260" y="580" width="190" height="60" as="geometry"/></mxCell><mxCell id="73" style="edgeStyle=orthogonalEdgeStyle;rounded=0;orthogonalLoop=1;jettySize=auto;html=1;entryX=0;entryY=0.5;entryDx=0;entryDy=0;" parent="1" source="64" target="66" edge="1"><mxGeometry relative="1" as="geometry"><Array as="points"><mxPoint x="1645" y="540"/></Array></mxGeometry></mxCell><mxCell id="74" style="edgeStyle=orthogonalEdgeStyle;rounded=0;orthogonalLoop=1;jettySize=auto;html=1;entryX=0;entryY=0.5;entryDx=0;entryDy=0;" parent="1" source="64" target="67" edge="1"><mxGeometry relative="1" as="geometry"><Array as="points"><mxPoint x="1645" y="610"/></Array></mxGeometry></mxCell><mxCell id="75" style="edgeStyle=orthogonalEdgeStyle;rounded=0;orthogonalLoop=1;jettySize=auto;html=1;entryX=0;entryY=0.5;entryDx=0;entryDy=0;" parent="1" source="64" target="68" edge="1"><mxGeometry relative="1" as="geometry"><Array as="points"><mxPoint x="1645" y="680"/></Array></mxGeometry></mxCell><mxCell id="64" value="ACTIVITY HYDRATOR&lt;br&gt;&lt;br&gt;from input activity name,&lt;br&gt;recognize activities and types" style="rounded=1;whiteSpace=wrap;html=1;fillColor=#a0522d;strokeColor=#6D1F00;fontColor=#ffffff;fontSize=11;" parent="1" vertex="1"><mxGeometry x="1550" y="420" width="190" height="60" as="geometry"/></mxCell><mxCell id="77" style="edgeStyle=orthogonalEdgeStyle;rounded=0;orthogonalLoop=1;jettySize=auto;html=1;entryX=0;entryY=0.5;entryDx=0;entryDy=0;" parent="1" source="66" target="76" edge="1"><mxGeometry relative="1" as="geometry"/></mxCell><mxCell id="66" value="ROWS&lt;br&gt;with room, operator, group and act code" style="label;whiteSpace=wrap;html=1;image=img/clipart/Gear_128x128.png;fontSize=11;" parent="1" vertex="1"><mxGeometry x="1780" y="510" width="240" height="60" as="geometry"/></mxCell><mxCell id="67" value="ACTIVITIES&lt;br&gt;list of known activities" style="label;whiteSpace=wrap;html=1;image=img/clipart/Gear_128x128.png;fontSize=11;" parent="1" vertex="1"><mxGeometry x="1780" y="580" width="240" height="60" as="geometry"/></mxCell><mxCell id="68" value="ACTIVITY TYPES&lt;br&gt;list of known activity types" style="label;whiteSpace=wrap;html=1;image=img/clipart/Gear_128x128.png;fontSize=11;" parent="1" vertex="1"><mxGeometry x="1780" y="650" width="240" height="60" as="geometry"/></mxCell><mxCell id="69" value="SCHOOLS&lt;br&gt;list of all schools" style="label;whiteSpace=wrap;html=1;image=img/clipart/Gear_128x128.png;fontSize=11;" parent="1" vertex="1"><mxGeometry x="1260" y="650" width="190" height="60" as="geometry"/></mxCell><mxCell id="70" value="SCHOOL CLASSES&lt;br&gt;list of all school classes" style="label;whiteSpace=wrap;html=1;image=img/clipart/Gear_128x128.png;fontSize=11;" parent="1" vertex="1"><mxGeometry x="1260" y="720" width="190" height="60" as="geometry"/></mxCell><mxCell id="79" style="edgeStyle=orthogonalEdgeStyle;rounded=0;orthogonalLoop=1;jettySize=auto;html=1;entryX=0;entryY=0.5;entryDx=0;entryDy=0;" parent="1" source="76" target="78" edge="1"><mxGeometry relative="1" as="geometry"><Array as="points"><mxPoint x="2265" y="540"/></Array></mxGeometry></mxCell><mxCell id="76" value="ANALYZER&lt;br&gt;&lt;br&gt;check for warning conditions and emit warnings at row level" style="rounded=1;whiteSpace=wrap;html=1;fillColor=#a0522d;strokeColor=#6D1F00;fontColor=#ffffff;fontSize=11;" parent="1" vertex="1"><mxGeometry x="2170" y="420" width="190" height="60" as="geometry"/></mxCell><mxCell id="91" style="edgeStyle=orthogonalEdgeStyle;rounded=0;orthogonalLoop=1;jettySize=auto;html=1;entryX=1;entryY=0.5;entryDx=0;entryDy=0;" parent="1" source="78" target="89" edge="1"><mxGeometry relative="1" as="geometry"><Array as="points"><mxPoint x="2550" y="840"/></Array></mxGeometry></mxCell><mxCell id="78" value="ROWS&lt;br&gt;with all references and warnings" style="label;whiteSpace=wrap;html=1;image=img/clipart/Gear_128x128.png;fontSize=11;" parent="1" vertex="1"><mxGeometry x="2420" y="510" width="240" height="60" as="geometry"/></mxCell><mxCell id="94" style="edgeStyle=orthogonalEdgeStyle;rounded=0;orthogonalLoop=1;jettySize=auto;html=1;entryX=0.5;entryY=0;entryDx=0;entryDy=0;" parent="1" source="80" target="92" edge="1"><mxGeometry relative="1" as="geometry"/></mxCell><mxCell id="80" value="AGGREGATOR" style="rounded=1;whiteSpace=wrap;html=1;fillColor=#76608a;strokeColor=#432D57;fontColor=#ffffff;fontSize=11;" parent="1" vertex="1"><mxGeometry x="160" y="1090" width="140" height="60" as="geometry"/></mxCell><mxCell id="81" value="ROWS&lt;br&gt;with all references and warnings" style="label;whiteSpace=wrap;html=1;image=img/clipart/Gear_128x128.png;fontSize=11;" parent="1" vertex="1"><mxGeometry x="160" y="920" width="240" height="60" as="geometry"/></mxCell><mxCell id="82" value="ACTIVITIES&lt;br&gt;list of known activities" style="label;whiteSpace=wrap;html=1;image=img/clipart/Gear_128x128.png;fontSize=11;" parent="1" vertex="1"><mxGeometry x="160" y="850" width="240" height="60" as="geometry"/></mxCell><mxCell id="83" value="ACTIVITY TYPES&lt;br&gt;list of known activity types" style="label;whiteSpace=wrap;html=1;image=img/clipart/Gear_128x128.png;fontSize=11;" parent="1" vertex="1"><mxGeometry x="410" y="850" width="240" height="60" as="geometry"/></mxCell><mxCell id="84" value="ROOMS&lt;br&gt;list of all rooms" style="label;whiteSpace=wrap;html=1;image=img/clipart/Gear_128x128.png;fontSize=11;" parent="1" vertex="1"><mxGeometry x="160" y="710" width="140" height="60" as="geometry"/></mxCell><mxCell id="85" value="OPERATORS&lt;br&gt;list of all operators" style="label;whiteSpace=wrap;html=1;image=img/clipart/Gear_128x128.png;fontSize=11;" parent="1" vertex="1"><mxGeometry x="310" y="710" width="190" height="60" as="geometry"/></mxCell><mxCell id="86" value="GROUPS&lt;br&gt;list of all groups" style="label;whiteSpace=wrap;html=1;image=img/clipart/Gear_128x128.png;fontSize=11;" parent="1" vertex="1"><mxGeometry x="160" y="780" width="190" height="60" as="geometry"/></mxCell><mxCell id="87" value="SCHOOLS&lt;br&gt;list of all schools" style="label;whiteSpace=wrap;html=1;image=img/clipart/Gear_128x128.png;fontSize=11;" parent="1" vertex="1"><mxGeometry x="360" y="780" width="190" height="60" as="geometry"/></mxCell><mxCell id="88" value="SCHOOL CLASSES&lt;br&gt;list of all school classes" style="label;whiteSpace=wrap;html=1;image=img/clipart/Gear_128x128.png;fontSize=11;" parent="1" vertex="1"><mxGeometry x="560" y="780" width="190" height="60" as="geometry"/></mxCell><mxCell id="101" style="edgeStyle=orthogonalEdgeStyle;rounded=0;orthogonalLoop=1;jettySize=auto;html=1;entryX=0;entryY=0.5;entryDx=0;entryDy=0;" parent="1" source="92" target="95" edge="1"><mxGeometry relative="1" as="geometry"><Array as="points"><mxPoint x="230" y="1350"/></Array></mxGeometry></mxCell><mxCell id="92" value="COMPETENCE DAY ASSIGNER&lt;br&gt;&lt;br&gt;assign each activity to the display day" style="rounded=1;whiteSpace=wrap;html=1;fillColor=#76608a;strokeColor=#432D57;fontColor=#ffffff;fontSize=11;" parent="1" vertex="1"><mxGeometry x="115" y="1220" width="230" height="60" as="geometry"/></mxCell><mxCell id="93" value="PARSED&lt;br&gt;all parsed data without aggregation" style="label;whiteSpace=wrap;html=1;image=img/clipart/Gear_128x128.png;fontSize=11;" parent="1" vertex="1"><mxGeometry x="430" y="970" width="270" height="60" as="geometry"/></mxCell><mxCell id="102" style="edgeStyle=orthogonalEdgeStyle;rounded=0;orthogonalLoop=1;jettySize=auto;html=1;entryX=0;entryY=0.5;entryDx=0;entryDy=0;" parent="1" source="95" target="99" edge="1"><mxGeometry relative="1" as="geometry"/></mxCell><mxCell id="95" value="ROWS&lt;br&gt;with competence day" style="label;whiteSpace=wrap;html=1;image=img/clipart/Gear_128x128.png;fontSize=11;" parent="1" vertex="1"><mxGeometry x="380.4" y="1320" width="270" height="60" as="geometry"/></mxCell><mxCell id="96" value="MAX TIMESPAN&lt;br&gt;ore minime/massime di attività per tutti i giorni" style="label;whiteSpace=wrap;html=1;image=img/clipart/Gear_128x128.png;fontSize=11;" parent="1" vertex="1"><mxGeometry x="980" y="1390" width="270" height="60" as="geometry"/></mxCell><mxCell id="103" style="edgeStyle=orthogonalEdgeStyle;rounded=0;orthogonalLoop=1;jettySize=auto;html=1;entryX=0;entryY=0.5;entryDx=0;entryDy=0;" parent="1" source="99" target="96" edge="1"><mxGeometry relative="1" as="geometry"><Array as="points"><mxPoint x="835" y="1420"/></Array></mxGeometry></mxCell><mxCell id="105" style="edgeStyle=orthogonalEdgeStyle;rounded=0;orthogonalLoop=1;jettySize=auto;html=1;entryX=0;entryY=0.5;entryDx=0;entryDy=0;" parent="1" source="99" target="104" edge="1"><mxGeometry relative="1" as="geometry"><Array as="points"><mxPoint x="835" y="1350"/></Array></mxGeometry></mxCell><mxCell id="99" value="COMMON DATA EXTRACTOR&lt;br&gt;&lt;br&gt;extract data that is common across all days" style="rounded=1;whiteSpace=wrap;html=1;fillColor=#76608a;strokeColor=#432D57;fontColor=#ffffff;fontSize=11;" parent="1" vertex="1"><mxGeometry x="720" y="1220" width="230" height="60" as="geometry"/></mxCell><mxCell id="107" style="edgeStyle=orthogonalEdgeStyle;rounded=0;orthogonalLoop=1;jettySize=auto;html=1;entryX=0;entryY=0.5;entryDx=0;entryDy=0;" parent="1" source="104" target="106" edge="1"><mxGeometry relative="1" as="geometry"/></mxCell><mxCell id="104" value="ROWS&lt;br&gt;with competence day" style="label;whiteSpace=wrap;html=1;image=img/clipart/Gear_128x128.png;fontSize=11;" parent="1" vertex="1"><mxGeometry x="980" y="1320" width="270" height="60" as="geometry"/></mxCell><mxCell id="109" style="edgeStyle=orthogonalEdgeStyle;rounded=0;orthogonalLoop=1;jettySize=auto;html=1;entryX=0;entryY=0.5;entryDx=0;entryDy=0;" parent="1" source="106" target="108" edge="1"><mxGeometry relative="1" as="geometry"><Array as="points"><mxPoint x="1495" y="1350"/></Array></mxGeometry></mxCell><mxCell id="106" value="DAY AGGREGATOR&lt;br&gt;&lt;br&gt;aggregate activities by competence day" style="rounded=1;whiteSpace=wrap;html=1;fillColor=#76608a;strokeColor=#432D57;fontColor=#ffffff;fontSize=11;" parent="1" vertex="1"><mxGeometry x="1380" y="1220" width="230" height="60" as="geometry"/></mxCell><mxCell id="111" style="edgeStyle=orthogonalEdgeStyle;rounded=0;orthogonalLoop=1;jettySize=auto;html=1;entryX=0;entryY=0.5;entryDx=0;entryDy=0;" parent="1" source="108" target="110" edge="1"><mxGeometry relative="1" as="geometry"/></mxCell><mxCell id="108" value="DAYS&lt;br&gt;with rows and filtered schools" style="label;whiteSpace=wrap;html=1;image=img/clipart/Gear_128x128.png;fontSize=11;" parent="1" vertex="1"><mxGeometry x="1660" y="1320" width="270" height="60" as="geometry"/></mxCell><mxCell id="113" style="edgeStyle=orthogonalEdgeStyle;rounded=0;orthogonalLoop=1;jettySize=auto;html=1;entryX=0;entryY=0.5;entryDx=0;entryDy=0;" parent="1" source="110" target="112" edge="1"><mxGeometry relative="1" as="geometry"><Array as="points"><mxPoint x="2145" y="1350"/></Array></mxGeometry></mxCell><mxCell id="110" value="ROOM AGGREGATOR&lt;br&gt;&lt;br&gt;aggregate by room inside a specific day" style="rounded=1;whiteSpace=wrap;html=1;fillColor=#76608a;strokeColor=#432D57;fontColor=#ffffff;fontSize=11;" parent="1" vertex="1"><mxGeometry x="2030" y="1220" width="230" height="60" as="geometry"/></mxCell><mxCell id="115" style="edgeStyle=orthogonalEdgeStyle;rounded=0;orthogonalLoop=1;jettySize=auto;html=1;entryX=0;entryY=0.5;entryDx=0;entryDy=0;" edge="1" parent="1" source="112" target="114"><mxGeometry relative="1" as="geometry"/></mxCell><mxCell id="112" value="DAYS WITH ROOMS&lt;br&gt;" style="label;whiteSpace=wrap;html=1;image=img/clipart/Gear_128x128.png;fontSize=11;" parent="1" vertex="1"><mxGeometry x="2290" y="1320" width="270" height="60" as="geometry"/></mxCell><mxCell id="117" style="edgeStyle=orthogonalEdgeStyle;rounded=0;orthogonalLoop=1;jettySize=auto;html=1;entryX=0;entryY=0.5;entryDx=0;entryDy=0;" edge="1" parent="1" source="114" target="116"><mxGeometry relative="1" as="geometry"><Array as="points"><mxPoint x="2755" y="1350"/></Array></mxGeometry></mxCell><mxCell id="114" value="ROOM SLOTS AGGREGATOR&lt;br&gt;&lt;br&gt;divide activities in room slots" style="rounded=1;whiteSpace=wrap;html=1;fillColor=#76608a;strokeColor=#432D57;fontColor=#ffffff;fontSize=11;" vertex="1" parent="1"><mxGeometry x="2640" y="1220" width="230" height="60" as="geometry"/></mxCell><mxCell id="116" value="DAYS WITH ROOMS AND SLOTS" style="label;whiteSpace=wrap;html=1;image=img/clipart/Gear_128x128.png;fontSize=11;" vertex="1" parent="1"><mxGeometry x="2950" y="1320" width="270" height="60" as="geometry"/></mxCell></root></mxGraphModel></diagram></mxfile>